# xmcd CD database file
#
# Track frame offsets:
#	150
#	19452
#	42705
#	63605
#	79257
#	100225
#	118647
#	142657
#	158105
#	175135
#	197287
#	214837
#
# Disc length: 3186 seconds
#
# Revision: 0
# Processed by: cddbd v1.5PL3 Copyright (c) Steve Scherf et al.
# Submitted via: CDex 1.51
#
DISCID=a50c700c
DTITLE=handan aydin - hicazdan caza
DYEAR=2003
DGENRE=Jazz
TTITLE0=igdir'in al almasi
TTITLE1=camdan sakiz
TTITLE2=elif dedim be dedim
TTITLE3=gel yanima
TTITLE4=bir firtina tuttu bizi
TTITLE5=potpori
TTITLE6=aman ak ellerin
TTITLE7=hey onbesli
TTITLE8=aynalar
TTITLE9=yine dertli dertli
TTITLE10=sevgi yetmiyor
TTITLE11=canina yandigim
EXTD=YEAR: 2003
EXTT0=
EXTT1=
EXTT2=
EXTT3=
EXTT4=
EXTT5=
EXTT6=
EXTT7=
EXTT8=
EXTT9=
EXTT10=
EXTT11=
PLAYORDER=
